# xmcd
#
# Track frame offsets: 
#        150
#        19191
#        45872
#        67443
#        99614
#        122451
#        141544
#        170557
#        201072
#        228686
#        249476
#        289313
#        312397
#
# Disc length: 4474 seconds
#
# Revision: 1
# Processed by: cddbd v1.5.2PL0 Copyright (c) Steve Scherf et al.
# Submitted via: ExactAudioCopy v0.99pb5
#
DISCID=c611780d
DTITLE=Various Artist - 2009 - Time Blues vol. 27
DYEAR=2009
DGENRE=Blues
TTITLE0=Marva Wright - My Christmas Song
TTITLE1=W.C. Clack - Tip Of My Tongue
TTITLE2=Sharrie Williams - Blue Lover
TTITLE3=Big Ed Sullivan - Even Voney
TTITLE4=Too Slim and The Taildraggers - Blue Guitar
TTITLE5=Sean Chambers - Loneliness
TTITLE6=Otis Clay - Since I've Been Loving You
TTITLE7=Greener - Tomcat Blues
TTITLE8=Larry Carner - Mr and Mrs Pain
TTITLE9=Ron Hacker and The Hacksaws - Fool For Your Stockings
TTITLE10=Jessica Born - Why Did You Go
TTITLE11=Mojo - Waiting On A Heartbreak
TTITLE12=Gov't Mule - Little Toy Brain
EXTD=
EXTT0=
EXTT1=
EXTT2=
EXTT3=
EXTT4=
EXTT5=
EXTT6=
EXTT7=
EXTT8=
EXTT9=
EXTT10=
EXTT11=
EXTT12=
PLAYORDER=
